<?xml version="1.0" encoding="UTF-8"?>
<svg fill="none" version="1.1" viewBox="0 0 32 32" xmlns="http://www.w3.org/2000/svg">
 <path d="m12.316 20.14c-0.54146-0.28286-0.74254-0.92087-0.45847-1.4547 0.0341-0.06408 3.6275-3.6807 7.9852-8.0369 4.3578-4.3562 7.9232-7.9353 7.9232-7.9534 0-0.018176-1.6065-0.033048-3.5701-0.033048-2.6848 0-3.615-0.013337-3.7512-0.053785-0.27546-0.081802-0.57671-0.40555-0.66728-0.71712-0.12104-0.41638-0.01082-0.7841 0.32635-1.0887 0.34336-0.3102 0.09059-0.2965 5.4679-0.2965 3.3255 0 4.8999 0.01497 5.0542 0.048054 0.29748 0.063797 0.56159 0.27215 0.71343 0.56281l0.12289 0.23523v5.0347c0 5.4884 0.01463 5.1613-0.2461 5.5031-0.06126 0.08031-0.2124 0.19721-0.33588 0.25978-0.53949 0.27338-1.1769 0.05272-1.4501-0.502l-0.102-0.20708-0.01225-3.6068-0.01224-3.6068-7.9302 7.9282c-6.2317 6.2301-7.9726 7.9472-8.1282 8.0171-0.29529 0.13254-0.63667 0.12076-0.92922-0.03207zm-8.1133 11.295c-0.88335-0.12609-1.74-0.5628-2.4015-1.2243-0.55542-0.55542-0.94013-1.2197-1.1486-1.9835l-0.10211-0.37402v-9.4385c0-9.1405 0.00265-9.4489 0.083914-9.7685 0.42919-1.6879 1.6848-2.8808 3.4363-3.2644 0.39747-0.087054 10.44-0.084715 10.687 0.0024887 0.21268 0.075119 0.49225 0.32357 0.5972 0.53072 0.25582 0.50495 0.07346 1.1073-0.43001 1.4204l-0.16193 0.10069-5.1703 0.022372c-5.1276 0.022188-5.1725 0.023144-5.4437 0.1159-0.39433 0.13488-0.62696 0.28468-0.89991 0.57949-0.26569 0.28698-0.43885 0.61237-0.51485 0.96749-0.036287 0.16955-0.049903 2.7072-0.049903 9.3002 0 8.1128 0.0073 9.0952 0.069375 9.3347 0.17717 0.68372 0.61536 1.1642 1.3167 1.4438l0.26401 0.10526 9.0865 0.0126c6.3407 0.0088 9.1704-0.0017 9.3642-0.03477 0.73445-0.12524 1.3078-0.59822 1.6049-1.3239l0.09746-0.23806 0.022-5.1923 0.022-5.1923 0.1281-0.2312c0.20281-0.36603 0.56347-0.58337 0.96649-0.58241 0.40397 9.55e-4 0.88418 0.369 0.99222 0.76045 0.03782 0.13705 0.04775 1.5459 0.0382 5.4215l-0.0129 5.2363-0.1239 0.39602c-0.52695 1.6843-1.8856 2.8648-3.5663 3.0986-0.41737 0.05805-18.344 0.05729-18.751-7.92e-4z"/>
</svg>
